<svg xmlns="http://www.w3.org/2000/svg" xmlns:xlink="http://www.w3.org/1999/xlink" width="378" height="18" class="svg"><title>badge-for-git. Style: 17</title><desc>char-height: 18 char_width : 9 font-size  : 15</desc><path fill="#434343" d="M9,0 9,0 a9,9 0 0,1 0,18 L9,18 a9,9 0 0,1 0,-18"></path><text fill="#FFF" x="9" y="14" font-family="DejaVu Sans Mono, Source code variable, monospace" font-size="15"></text><path fill="#CB0000" d="M27,0 27,0 a9,9 0 0,1 0,18 L27,18 a9,9 0 0,1 0,-18"></path><text fill="#FFF" x="27" y="14" font-family="DejaVu Sans Mono, Source code variable, monospace" font-size="15"></text><path fill="#CB0000" d="M45,0 45,0 a9,9 0 0,1 0,18 L45,18 a9,9 0 0,1 0,-18"></path><text fill="#FFF" x="45" y="14" font-family="DejaVu Sans Mono, Source code variable, monospace" font-size="15"></text><path fill="#CB0000" d="M63,0 63,0 a9,9 0 0,1 0,18 L63,18 a9,9 0 0,1 0,-18"></path><text fill="#FFF" x="63" y="14" font-family="DejaVu Sans Mono, Source code variable, monospace" font-size="15"></text><path fill="#CB0000" d="M81,0 81,0 a9,9 0 0,1 0,18 L81,18 a9,9 0 0,1 0,-18"></path><text fill="#FFF" x="81" y="14" font-family="DejaVu Sans Mono, Source code variable, monospace" font-size="15"></text><path fill="#CB0000" d="M99,0 99,0 a9,9 0 0,1 0,18 L99,18 a9,9 0 0,1 0,-18"></path><text fill="#FFF" x="99" y="14" font-family="DejaVu Sans Mono, Source code variable, monospace" font-size="15"></text><path fill="#CB0000" d="M117,0 117,0 a9,9 0 0,1 0,18 L117,18 a9,9 0 0,1 0,-18"></path><text fill="#FFF" x="117" y="14" font-family="DejaVu Sans Mono, Source code variable, monospace" font-size="15"></text><path fill="#CB0000" d="M135,0 135,0 a9,9 0 0,1 0,18 L135,18 a9,9 0 0,1 0,-18"></path><text fill="#FFF" x="135" y="14" font-family="DejaVu Sans Mono, Source code variable, monospace" font-size="15"></text><path fill="#CB0000" d="M153,0 153,0 a9,9 0 0,1 0,18 L153,18 a9,9 0 0,1 0,-18"></path><text fill="#FFF" x="153" y="14" font-family="DejaVu Sans Mono, Source code variable, monospace" font-size="15"></text><path fill="#CB0000" d="M171,0 171,0 a9,9 0 0,1 0,18 L171,18 a9,9 0 0,1 0,-18"></path><text fill="#FFF" x="171" y="14" font-family="DejaVu Sans Mono, Source code variable, monospace" font-size="15"></text><path fill="#CB0000" d="M189,0 189,0 a9,9 0 0,1 0,18 L189,18 a9,9 0 0,1 0,-18"></path><text fill="#FFF" x="189" y="14" font-family="DejaVu Sans Mono, Source code variable, monospace" font-size="15"></text><path fill="#CB0000" d="M207,0 207,0 a9,9 0 0,1 0,18 L207,18 a9,9 0 0,1 0,-18"></path><text fill="#FFF" x="207" y="14" font-family="DejaVu Sans Mono, Source code variable, monospace" font-size="15"></text><path fill="#CB0000" d="M225,0 225,0 a9,9 0 0,1 0,18 L225,18 a9,9 0 0,1 0,-18"></path><text fill="#FFF" x="225" y="14" font-family="DejaVu Sans Mono, Source code variable, monospace" font-size="15"></text><path fill="#CB0000" d="M243,0 243,0 a9,9 0 0,1 0,18 L243,18 a9,9 0 0,1 0,-18"></path><text fill="#FFF" x="243" y="14" font-family="DejaVu Sans Mono, Source code variable, monospace" font-size="15"></text><path fill="#CB0000" d="M261,0 261,0 a9,9 0 0,1 0,18 L261,18 a9,9 0 0,1 0,-18"></path><text fill="#FFF" x="261" y="14" font-family="DejaVu Sans Mono, Source code variable, monospace" font-size="15"></text><path fill="#CB0000" d="M279,0 279,0 a9,9 0 0,1 0,18 L279,18 a9,9 0 0,1 0,-18"></path><text fill="#FFF" x="279" y="14" font-family="DejaVu Sans Mono, Source code variable, monospace" font-size="15"></text><path fill="#CB0000" d="M297,0 297,0 a9,9 0 0,1 0,18 L297,18 a9,9 0 0,1 0,-18"></path><text fill="#FFF" x="297" y="14" font-family="DejaVu Sans Mono, Source code variable, monospace" font-size="15"></text><path fill="#CB0000" d="M315,0 315,0 a9,9 0 0,1 0,18 L315,18 a9,9 0 0,1 0,-18"></path><text fill="#FFF" x="315" y="14" font-family="DejaVu Sans Mono, Source code variable, monospace" font-size="15"></text><path fill="#CB0000" d="M333,0 333,0 a9,9 0 0,1 0,18 L333,18 a9,9 0 0,1 0,-18"></path><text fill="#FFF" x="333" y="14" font-family="DejaVu Sans Mono, Source code variable, monospace" font-size="15"></text><path fill="#CB0000" d="M351,0 351,0 a9,9 0 0,1 0,18 L351,18 a9,9 0 0,1 0,-18"></path><text fill="#FFF" x="351" y="14" font-family="DejaVu Sans Mono, Source code variable, monospace" font-size="15"></text><path fill="#CB0000" d="M369,0 369,0 a9,9 0 0,1 0,18 L369,18 a9,9 0 0,1 0,-18"></path><text fill="#FFF" x="369" y="14" font-family="DejaVu Sans Mono, Source code variable, monospace" font-size="15"></text></svg>
