<svg xmlns="http://www.w3.org/2000/svg" xmlns:xlink="http://www.w3.org/1999/xlink" width="588" height="18" class="svg"><title>badge-for-git. Style: 17</title><desc>char-height: 18 char_width : 9 font-size  : 15</desc><path fill="#434343" d="M9,0 9,0 a9,9 0 0,1 0,18 L9,18 a9,9 0 0,1 0,-18"></path><text fill="#FFF" x="9" y="14" font-family="DejaVu Sans Mono, Source code variable, monospace" font-size="15"></text><path fill="#CB0000" d="M37,0 37,0 a9,9 0 0,1 0,18 L37,18 a9,9 0 0,1 0,-18"></path><text fill="#FFF" x="37" y="14" font-family="DejaVu Sans Mono, Source code variable, monospace" font-size="15"></text><path fill="#CB0000" d="M65,0 65,0 a9,9 0 0,1 0,18 L65,18 a9,9 0 0,1 0,-18"></path><text fill="#FFF" x="65" y="14" font-family="DejaVu Sans Mono, Source code variable, monospace" font-size="15"></text><path fill="#CB0000" d="M93,0 93,0 a9,9 0 0,1 0,18 L93,18 a9,9 0 0,1 0,-18"></path><text fill="#FFF" x="93" y="14" font-family="DejaVu Sans Mono, Source code variable, monospace" font-size="15"></text><path fill="#CB0000" d="M121,0 121,0 a9,9 0 0,1 0,18 L121,18 a9,9 0 0,1 0,-18"></path><text fill="#FFF" x="121" y="14" font-family="DejaVu Sans Mono, Source code variable, monospace" font-size="15"></text><path fill="#CB0000" d="M149,0 149,0 a9,9 0 0,1 0,18 L149,18 a9,9 0 0,1 0,-18"></path><text fill="#FFF" x="149" y="14" font-family="DejaVu Sans Mono, Source code variable, monospace" font-size="15"></text><path fill="#CB0000" d="M177,0 177,0 a9,9 0 0,1 0,18 L177,18 a9,9 0 0,1 0,-18"></path><text fill="#FFF" x="177" y="14" font-family="DejaVu Sans Mono, Source code variable, monospace" font-size="15"></text><path fill="#CB0000" d="M205,0 205,0 a9,9 0 0,1 0,18 L205,18 a9,9 0 0,1 0,-18"></path><text fill="#FFF" x="205" y="14" font-family="DejaVu Sans Mono, Source code variable, monospace" font-size="15"></text><path fill="#CB0000" d="M233,0 233,0 a9,9 0 0,1 0,18 L233,18 a9,9 0 0,1 0,-18"></path><text fill="#FFF" x="233" y="14" font-family="DejaVu Sans Mono, Source code variable, monospace" font-size="15"></text><path fill="#CB0000" d="M261,0 261,0 a9,9 0 0,1 0,18 L261,18 a9,9 0 0,1 0,-18"></path><text fill="#FFF" x="261" y="14" font-family="DejaVu Sans Mono, Source code variable, monospace" font-size="15"></text><path fill="#CB0000" d="M289,0 289,0 a9,9 0 0,1 0,18 L289,18 a9,9 0 0,1 0,-18"></path><text fill="#FFF" x="289" y="14" font-family="DejaVu Sans Mono, Source code variable, monospace" font-size="15"></text><path fill="#CB0000" d="M317,0 317,0 a9,9 0 0,1 0,18 L317,18 a9,9 0 0,1 0,-18"></path><text fill="#FFF" x="317" y="14" font-family="DejaVu Sans Mono, Source code variable, monospace" font-size="15"></text><path fill="#CB0000" d="M345,0 345,0 a9,9 0 0,1 0,18 L345,18 a9,9 0 0,1 0,-18"></path><text fill="#FFF" x="345" y="14" font-family="DejaVu Sans Mono, Source code variable, monospace" font-size="15"></text><path fill="#CB0000" d="M373,0 373,0 a9,9 0 0,1 0,18 L373,18 a9,9 0 0,1 0,-18"></path><text fill="#FFF" x="373" y="14" font-family="DejaVu Sans Mono, Source code variable, monospace" font-size="15"></text><path fill="#CB0000" d="M401,0 401,0 a9,9 0 0,1 0,18 L401,18 a9,9 0 0,1 0,-18"></path><text fill="#FFF" x="401" y="14" font-family="DejaVu Sans Mono, Source code variable, monospace" font-size="15"></text><path fill="#CB0000" d="M429,0 429,0 a9,9 0 0,1 0,18 L429,18 a9,9 0 0,1 0,-18"></path><text fill="#FFF" x="429" y="14" font-family="DejaVu Sans Mono, Source code variable, monospace" font-size="15"></text><path fill="#CB0000" d="M457,0 457,0 a9,9 0 0,1 0,18 L457,18 a9,9 0 0,1 0,-18"></path><text fill="#FFF" x="457" y="14" font-family="DejaVu Sans Mono, Source code variable, monospace" font-size="15"></text><path fill="#CB0000" d="M485,0 485,0 a9,9 0 0,1 0,18 L485,18 a9,9 0 0,1 0,-18"></path><text fill="#FFF" x="485" y="14" font-family="DejaVu Sans Mono, Source code variable, monospace" font-size="15"></text><path fill="#CB0000" d="M513,0 513,0 a9,9 0 0,1 0,18 L513,18 a9,9 0 0,1 0,-18"></path><text fill="#FFF" x="513" y="14" font-family="DejaVu Sans Mono, Source code variable, monospace" font-size="15"></text><path fill="#CB0000" d="M541,0 541,0 a9,9 0 0,1 0,18 L541,18 a9,9 0 0,1 0,-18"></path><text fill="#FFF" x="541" y="14" font-family="DejaVu Sans Mono, Source code variable, monospace" font-size="15"></text><path fill="#CB0000" d="M569,0 569,0 a9,9 0 0,1 0,18 L569,18 a9,9 0 0,1 0,-18"></path><text fill="#FFF" x="569" y="14" font-family="DejaVu Sans Mono, Source code variable, monospace" font-size="15"></text></svg>
