<svg xmlns="http://www.w3.org/2000/svg" xmlns:xlink="http://www.w3.org/1999/xlink" width="333" height="18" class="svg"><title>badge-for-git. Style: 17</title><desc>char-height: 18 char_width : 9 font-size  : 15</desc><path fill="#434343" d="M9,0 36,0 a9,9 0 0,1 0,18 L9,18 a9,9 0 0,1 0,-18"></path><text fill="#FFF" x="9" y="14" font-family="DejaVu Sans Mono, Source code variable, monospace" font-size="15">one</text><path fill="#CB0000" d="M54,0 54,0 a9,9 0 0,1 0,18 L54,18 a9,9 0 0,1 0,-18"></path><text fill="#FFF" x="54" y="14" font-family="DejaVu Sans Mono, Source code variable, monospace" font-size="15"></text><path fill="#CB0000" d="M72,0 99,0 a9,9 0 0,1 0,18 L72,18 a9,9 0 0,1 0,-18"></path><text fill="#FFF" x="72" y="14" font-family="DejaVu Sans Mono, Source code variable, monospace" font-size="15">two</text><path fill="#CB0000" d="M117,0 117,0 a9,9 0 0,1 0,18 L117,18 a9,9 0 0,1 0,-18"></path><text fill="#FFF" x="117" y="14" font-family="DejaVu Sans Mono, Source code variable, monospace" font-size="15"></text><path fill="#CB0000" d="M135,0 180,0 a9,9 0 0,1 0,18 L135,18 a9,9 0 0,1 0,-18"></path><text fill="#FFF" x="135" y="14" font-family="DejaVu Sans Mono, Source code variable, monospace" font-size="15">three</text><path fill="#CB0000" d="M198,0 198,0 a9,9 0 0,1 0,18 L198,18 a9,9 0 0,1 0,-18"></path><text fill="#FFF" x="198" y="14" font-family="DejaVu Sans Mono, Source code variable, monospace" font-size="15"></text><path fill="#CB0000" d="M216,0 252,0 a9,9 0 0,1 0,18 L216,18 a9,9 0 0,1 0,-18"></path><text fill="#FFF" x="216" y="14" font-family="DejaVu Sans Mono, Source code variable, monospace" font-size="15">four</text><path fill="#CB0000" d="M270,0 270,0 a9,9 0 0,1 0,18 L270,18 a9,9 0 0,1 0,-18"></path><text fill="#FFF" x="270" y="14" font-family="DejaVu Sans Mono, Source code variable, monospace" font-size="15"></text><path fill="#CB0000" d="M288,0 324,0 a9,9 0 0,1 0,18 L288,18 a9,9 0 0,1 0,-18"></path><text fill="#FFF" x="288" y="14" font-family="DejaVu Sans Mono, Source code variable, monospace" font-size="15">five</text></svg>
