<svg xmlns="http://www.w3.org/2000/svg" xmlns:xlink="http://www.w3.org/1999/xlink" width="531" height="18" class="svg"><title>badge-for-git. Style: 17</title><desc>char-height: 18 char_width : 9 font-size  : 15</desc><path fill="#434343" d="M9,0 36,0 a9,9 0 0,1 0,18 L9,18 a9,9 0 0,1 0,-18"></path><text fill="#FFF" x="9" y="14" font-family="monospace" font-size="15">one</text><path fill="#CB0000" d="M54,0 81,0 a9,9 0 0,1 0,18 L54,18 a9,9 0 0,1 0,-18"></path><text fill="#FFF" x="54" y="14" font-family="monospace" font-size="15">two</text><path fill="#CB0000" d="M99,0 144,0 a9,9 0 0,1 0,18 L99,18 a9,9 0 0,1 0,-18"></path><text fill="#FFF" x="99" y="14" font-family="monospace" font-size="15">three</text><path fill="#CB0000" d="M162,0 198,0 a9,9 0 0,1 0,18 L162,18 a9,9 0 0,1 0,-18"></path><text fill="#FFF" x="162" y="14" font-family="monospace" font-size="15">four</text><path fill="#CB0000" d="M216,0 252,0 a9,9 0 0,1 0,18 L216,18 a9,9 0 0,1 0,-18"></path><text fill="#FFF" x="216" y="14" font-family="monospace" font-size="15">five</text><path fill="#CB0000" d="M270,0 297,0 a9,9 0 0,1 0,18 L270,18 a9,9 0 0,1 0,-18"></path><text fill="#FFF" x="270" y="14" font-family="monospace" font-size="15">six</text><path fill="#CB0000" d="M315,0 360,0 a9,9 0 0,1 0,18 L315,18 a9,9 0 0,1 0,-18"></path><text fill="#FFF" x="315" y="14" font-family="monospace" font-size="15">seven</text><path fill="#CB0000" d="M378,0 423,0 a9,9 0 0,1 0,18 L378,18 a9,9 0 0,1 0,-18"></path><text fill="#FFF" x="378" y="14" font-family="monospace" font-size="15">eight</text><path fill="#CB0000" d="M441,0 477,0 a9,9 0 0,1 0,18 L441,18 a9,9 0 0,1 0,-18"></path><text fill="#FFF" x="441" y="14" font-family="monospace" font-size="15">nine</text><path fill="#CB0000" d="M495,0 522,0 a9,9 0 0,1 0,18 L495,18 a9,9 0 0,1 0,-18"></path><text fill="#FFF" x="495" y="14" font-family="monospace" font-size="15">ten</text></svg>
