<svg xmlns="http://www.w3.org/2000/svg" xmlns:xlink="http://www.w3.org/1999/xlink" width="675" height="18" class="svg"><title>badge-for-git. Style: 12</title><desc>char-height: 18 char_width : 9 font-size  : 15</desc><path fill="#00E100" d="M50,0 59,9 50,18 41,9"></path><path fill="#434343" d="M0,0 45,0 36,9 45,18 0,18 9,9"></path><text fill="#FFF" x="13.5" y="14" font-family="monospace" font-size="15">do</text><path fill="#00E100" d="M78,0 87,9 78,18 69,9"></path><path fill="#CB0000" d="M55,0 73,0 64,9 73,18 55,18 64,9"></path><text fill="#FFF" x="68.5" y="14" font-family="monospace" font-size="15"></text><path fill="#00E100" d="M106,0 115,9 106,18 97,9"></path><path fill="#CB0000" d="M83,0 101,0 92,9 101,18 83,18 92,9"></path><text fill="#FFF" x="96.5" y="14" font-family="monospace" font-size="15"></text><path fill="#00E100" d="M134,0 143,9 134,18 125,9"></path><path fill="#CB0000" d="M111,0 129,0 120,9 129,18 111,18 120,9"></path><text fill="#FFF" x="124.5" y="14" font-family="monospace" font-size="15"></text><path fill="#00E100" d="M162,0 171,9 162,18 153,9"></path><path fill="#CB0000" d="M139,0 157,0 148,9 157,18 139,18 148,9"></path><text fill="#FFF" x="152.5" y="14" font-family="monospace" font-size="15"></text><path fill="#00E100" d="M190,0 199,9 190,18 181,9"></path><path fill="#CB0000" d="M167,0 185,0 176,9 185,18 167,18 176,9"></path><text fill="#FFF" x="180.5" y="14" font-family="monospace" font-size="15"></text><path fill="#00E100" d="M254,0 263,9 254,18 245,9"></path><path fill="#CB0000" d="M195,0 249,0 240,9 249,18 195,18 204,9"></path><text fill="#FFF" x="208.5" y="14" font-family="monospace" font-size="15">you</text><path fill="#00E100" d="M282,0 291,9 282,18 273,9"></path><path fill="#CB0000" d="M259,0 277,0 268,9 277,18 259,18 268,9"></path><text fill="#FFF" x="272.5" y="14" font-family="monospace" font-size="15"></text><path fill="#00E100" d="M310,0 319,9 310,18 301,9"></path><path fill="#CB0000" d="M287,0 305,0 296,9 305,18 287,18 296,9"></path><text fill="#FFF" x="300.5" y="14" font-family="monospace" font-size="15"></text><path fill="#00E100" d="M338,0 347,9 338,18 329,9"></path><path fill="#CB0000" d="M315,0 333,0 324,9 333,18 315,18 324,9"></path><text fill="#FFF" x="328.5" y="14" font-family="monospace" font-size="15"></text><path fill="#00E100" d="M366,0 375,9 366,18 357,9"></path><path fill="#CB0000" d="M343,0 361,0 352,9 361,18 343,18 352,9"></path><text fill="#FFF" x="356.5" y="14" font-family="monospace" font-size="15"></text><path fill="#00E100" d="M394,0 403,9 394,18 385,9"></path><path fill="#CB0000" d="M371,0 389,0 380,9 389,18 371,18 380,9"></path><text fill="#FFF" x="384.5" y="14" font-family="monospace" font-size="15"></text><path fill="#00E100" d="M467,0 476,9 467,18 458,9"></path><path fill="#CB0000" d="M399,0 462,0 453,9 462,18 399,18 408,9"></path><text fill="#FFF" x="412.5" y="14" font-family="monospace" font-size="15">like</text><path fill="#00E100" d="M495,0 504,9 495,18 486,9"></path><path fill="#CB0000" d="M472,0 490,0 481,9 490,18 472,18 481,9"></path><text fill="#FFF" x="485.5" y="14" font-family="monospace" font-size="15"></text><path fill="#00E100" d="M523,0 532,9 523,18 514,9"></path><path fill="#CB0000" d="M500,0 518,0 509,9 518,18 500,18 509,9"></path><text fill="#FFF" x="513.5" y="14" font-family="monospace" font-size="15"></text><path fill="#00E100" d="M551,0 560,9 551,18 542,9"></path><path fill="#CB0000" d="M528,0 546,0 537,9 546,18 528,18 537,9"></path><text fill="#FFF" x="541.5" y="14" font-family="monospace" font-size="15"></text><path fill="#00E100" d="M579,0 588,9 579,18 570,9"></path><path fill="#CB0000" d="M556,0 574,0 565,9 574,18 556,18 565,9"></path><text fill="#FFF" x="569.5" y="14" font-family="monospace" font-size="15"></text><path fill="#00E100" d="M607,0 616,9 607,18 598,9"></path><path fill="#CB0000" d="M584,0 602,0 593,9 602,18 584,18 593,9"></path><text fill="#FFF" x="597.5" y="14" font-family="monospace" font-size="15"></text><path fill="#CB0000" d="M612,0 675,0 666,9 675,18 612,18 621,9"></path><text fill="#FFF" x="625.5" y="14" font-family="monospace" font-size="15">this</text></svg>
