<svg xmlns="http://www.w3.org/2000/svg" xmlns:xlink="http://www.w3.org/1999/xlink" width="554" height="18" class="svg"><title>badge-for-git. Style: 17</title><desc>char-height: 18 char_width : 9 font-size  : 15</desc><path fill="#434343" d="M9,0 27,0 a9,9 0 0,1 0,18 L9,18 a9,9 0 0,1 0,-18"></path><text fill="#FFF" x="9" y="14" font-family="monospace" font-size="15">do</text><path fill="#CB0000" d="M50,0 50,0 a9,9 0 0,1 0,18 L50,18 a9,9 0 0,1 0,-18"></path><text fill="#FFF" x="50" y="14" font-family="monospace" font-size="15"></text><path fill="#CB0000" d="M73,0 73,0 a9,9 0 0,1 0,18 L73,18 a9,9 0 0,1 0,-18"></path><text fill="#FFF" x="73" y="14" font-family="monospace" font-size="15"></text><path fill="#CB0000" d="M96,0 96,0 a9,9 0 0,1 0,18 L96,18 a9,9 0 0,1 0,-18"></path><text fill="#FFF" x="96" y="14" font-family="monospace" font-size="15"></text><path fill="#CB0000" d="M119,0 119,0 a9,9 0 0,1 0,18 L119,18 a9,9 0 0,1 0,-18"></path><text fill="#FFF" x="119" y="14" font-family="monospace" font-size="15"></text><path fill="#CB0000" d="M142,0 142,0 a9,9 0 0,1 0,18 L142,18 a9,9 0 0,1 0,-18"></path><text fill="#FFF" x="142" y="14" font-family="monospace" font-size="15"></text><path fill="#CB0000" d="M165,0 192,0 a9,9 0 0,1 0,18 L165,18 a9,9 0 0,1 0,-18"></path><text fill="#FFF" x="165" y="14" font-family="monospace" font-size="15">you</text><path fill="#CB0000" d="M215,0 215,0 a9,9 0 0,1 0,18 L215,18 a9,9 0 0,1 0,-18"></path><text fill="#FFF" x="215" y="14" font-family="monospace" font-size="15"></text><path fill="#CB0000" d="M238,0 238,0 a9,9 0 0,1 0,18 L238,18 a9,9 0 0,1 0,-18"></path><text fill="#FFF" x="238" y="14" font-family="monospace" font-size="15"></text><path fill="#CB0000" d="M261,0 261,0 a9,9 0 0,1 0,18 L261,18 a9,9 0 0,1 0,-18"></path><text fill="#FFF" x="261" y="14" font-family="monospace" font-size="15"></text><path fill="#CB0000" d="M284,0 284,0 a9,9 0 0,1 0,18 L284,18 a9,9 0 0,1 0,-18"></path><text fill="#FFF" x="284" y="14" font-family="monospace" font-size="15"></text><path fill="#CB0000" d="M307,0 307,0 a9,9 0 0,1 0,18 L307,18 a9,9 0 0,1 0,-18"></path><text fill="#FFF" x="307" y="14" font-family="monospace" font-size="15"></text><path fill="#CB0000" d="M330,0 366,0 a9,9 0 0,1 0,18 L330,18 a9,9 0 0,1 0,-18"></path><text fill="#FFF" x="330" y="14" font-family="monospace" font-size="15">like</text><path fill="#CB0000" d="M389,0 389,0 a9,9 0 0,1 0,18 L389,18 a9,9 0 0,1 0,-18"></path><text fill="#FFF" x="389" y="14" font-family="monospace" font-size="15"></text><path fill="#CB0000" d="M412,0 412,0 a9,9 0 0,1 0,18 L412,18 a9,9 0 0,1 0,-18"></path><text fill="#FFF" x="412" y="14" font-family="monospace" font-size="15"></text><path fill="#CB0000" d="M435,0 435,0 a9,9 0 0,1 0,18 L435,18 a9,9 0 0,1 0,-18"></path><text fill="#FFF" x="435" y="14" font-family="monospace" font-size="15"></text><path fill="#CB0000" d="M458,0 458,0 a9,9 0 0,1 0,18 L458,18 a9,9 0 0,1 0,-18"></path><text fill="#FFF" x="458" y="14" font-family="monospace" font-size="15"></text><path fill="#CB0000" d="M481,0 481,0 a9,9 0 0,1 0,18 L481,18 a9,9 0 0,1 0,-18"></path><text fill="#FFF" x="481" y="14" font-family="monospace" font-size="15"></text><path fill="#CB0000" d="M504,0 540,0 a9,9 0 0,1 0,18 L504,18 a9,9 0 0,1 0,-18"></path><text fill="#FFF" x="504" y="14" font-family="monospace" font-size="15">this</text></svg>
