<svg xmlns="http://www.w3.org/2000/svg" xmlns:xlink="http://www.w3.org/1999/xlink" width="660" height="12" class="svg"><title>badge-for-git. (line) Style: 3</title><desc>char-height: 12 char_width:6 font-size :10</desc><path fill="#CB0000" d=" M0,0 h12 v12 h-12 M12,0 h12 v12 h-12 M24,0 h12 v12 h-12 M36,0 h12 v12 h-12 M48,0 h12 v12 h-12 M60,0 h12 v12 h-12 M72,0 h12 v12 h-12 M84,0 h12 v12 h-12 M96,0 h12 v12 h-12 M108,0 h12 v12 h-12 M120,0 h12 v12 h-12 M132,0 h12 v12 h-12 M144,0 h12 v12 h-12 M156,0 h12 v12 h-12 M168,0 h12 v12 h-12 M180,0 h12 v12 h-12 M192,0 h12 v12 h-12 M204,0 h12 v12 h-12 M216,0 h12 v12 h-12 M228,0 h12 v12 h-12 M240,0 h12 v12 h-12 M252,0 h12 v12 h-12 M264,0 h12 v12 h-12 M276,0 h12 v12 h-12 M288,0 h12 v12 h-12 M300,0 h12 v12 h-12 M312,0 h12 v12 h-12 M324,0 h12 v12 h-12 M336,0 h12 v12 h-12 M348,0 h12 v12 h-12 M360,0 h12 v12 h-12 M372,0 h12 v12 h-12 M384,0 h12 v12 h-12 M396,0 h12 v12 h-12 M408,0 h12 v12 h-12 M420,0 h12 v12 h-12 M432,0 h12 v12 h-12 M444,0 h12 v12 h-12 M456,0 h12 v12 h-12 M468,0 h12 v12 h-12 M480,0 h12 v12 h-12 M492,0 h12 v12 h-12 M504,0 h12 v12 h-12 M516,0 h12 v12 h-12 M528,0 h12 v12 h-12 M540,0 h12 v12 h-12 M552,0 h12 v12 h-12 M564,0 h12 v12 h-12 M576,0 h12 v12 h-12 M588,0 h12 v12 h-12 M600,0 h12 v12 h-12 M612,0 h12 v12 h-12 M624,0 h12 v12 h-12 M636,0 h12 v12 h-12 M648,0 h12 v12 h-12"></path></svg>
