<svg xmlns="http://www.w3.org/2000/svg" xmlns:xlink="http://www.w3.org/1999/xlink" width="660" height="12" class="svg"><title>badge-for-git. (line) Style: 4</title><desc>char-height: 12 char_width:6 font-size :10</desc><path fill="#CB0000" d=" m6,0 6,6 -6,6-6,-6 m18,-6 6,6 -6,6-6,-6 m18,-6 6,6 -6,6-6,-6 m18,-6 6,6 -6,6-6,-6 m18,-6 6,6 -6,6-6,-6 m18,-6 6,6 -6,6-6,-6 m18,-6 6,6 -6,6-6,-6 m18,-6 6,6 -6,6-6,-6 m18,-6 6,6 -6,6-6,-6 m18,-6 6,6 -6,6-6,-6 m18,-6 6,6 -6,6-6,-6 m18,-6 6,6 -6,6-6,-6 m18,-6 6,6 -6,6-6,-6 m18,-6 6,6 -6,6-6,-6 m18,-6 6,6 -6,6-6,-6 m18,-6 6,6 -6,6-6,-6 m18,-6 6,6 -6,6-6,-6 m18,-6 6,6 -6,6-6,-6 m18,-6 6,6 -6,6-6,-6 m18,-6 6,6 -6,6-6,-6 m18,-6 6,6 -6,6-6,-6 m18,-6 6,6 -6,6-6,-6 m18,-6 6,6 -6,6-6,-6 m18,-6 6,6 -6,6-6,-6 m18,-6 6,6 -6,6-6,-6 m18,-6 6,6 -6,6-6,-6 m18,-6 6,6 -6,6-6,-6 m18,-6 6,6 -6,6-6,-6 m18,-6 6,6 -6,6-6,-6 m18,-6 6,6 -6,6-6,-6 m18,-6 6,6 -6,6-6,-6 m18,-6 6,6 -6,6-6,-6 m18,-6 6,6 -6,6-6,-6 m18,-6 6,6 -6,6-6,-6 m18,-6 6,6 -6,6-6,-6 m18,-6 6,6 -6,6-6,-6 m18,-6 6,6 -6,6-6,-6 m18,-6 6,6 -6,6-6,-6 m18,-6 6,6 -6,6-6,-6 m18,-6 6,6 -6,6-6,-6 m18,-6 6,6 -6,6-6,-6 m18,-6 6,6 -6,6-6,-6 m18,-6 6,6 -6,6-6,-6 m18,-6 6,6 -6,6-6,-6 m18,-6 6,6 -6,6-6,-6 m18,-6 6,6 -6,6-6,-6 m18,-6 6,6 -6,6-6,-6 m18,-6 6,6 -6,6-6,-6 m18,-6 6,6 -6,6-6,-6 m18,-6 6,6 -6,6-6,-6 m18,-6 6,6 -6,6-6,-6 m18,-6 6,6 -6,6-6,-6 m18,-6 6,6 -6,6-6,-6 m18,-6 6,6 -6,6-6,-6 m18,-6 6,6 -6,6-6,-6"></path></svg>
