<svg xmlns="http://www.w3.org/2000/svg" xmlns:xlink="http://www.w3.org/1999/xlink" width="505" height="12" class="svg"><title>badge-for-git. (line) Style: 5</title><desc>char-height: 12 char_width:6 font-size :10</desc><path fill="#F80" d="m0,6 a6,6 0 1,1 0,0.001 m17,0 a6,6 0 1,1 0,0.001 m17,0 a6,6 0 1,1 0,0.001 m17,0 a6,6 0 1,1 0,0.001 m17,0 a6,6 0 1,1 0,0.001 m17,0 a6,6 0 1,1 0,0.001 m17,0 a6,6 0 1,1 0,0.001 m17,0 a6,6 0 1,1 0,0.001 m17,0 a6,6 0 1,1 0,0.001 m17,0 a6,6 0 1,1 0,0.001 m17,0 a6,6 0 1,1 0,0.001 m17,0 a6,6 0 1,1 0,0.001 m17,0 a6,6 0 1,1 0,0.001 m17,0 a6,6 0 1,1 0,0.001 m17,0 a6,6 0 1,1 0,0.001 m17,0 a6,6 0 1,1 0,0.001 m17,0 a6,6 0 1,1 0,0.001 m17,0 a6,6 0 1,1 0,0.001 m17,0 a6,6 0 1,1 0,0.001 m17,0 a6,6 0 1,1 0,0.001 m17,0 a6,6 0 1,1 0,0.001 m17,0 a6,6 0 1,1 0,0.001 m17,0 a6,6 0 1,1 0,0.001 m17,0 a6,6 0 1,1 0,0.001 m17,0 a6,6 0 1,1 0,0.001 m17,0 a6,6 0 1,1 0,0.001 m17,0 a6,6 0 1,1 0,0.001 m17,0 a6,6 0 1,1 0,0.001 m17,0 a6,6 0 1,1 0,0.001 m17,0 a6,6 0 1,1 0,0.001 "></path></svg>
