<svg xmlns="http://www.w3.org/2000/svg" xmlns:xlink="http://www.w3.org/1999/xlink" width="505" height="12" class="svg"><title>badge-for-git. (line) Style: 3</title><desc>char-height: 12 char_width:6 font-size :10</desc><path fill="#F80" d=" M0,0 h12 v12 h-12 M17,0 h12 v12 h-12 M34,0 h12 v12 h-12 M51,0 h12 v12 h-12 M68,0 h12 v12 h-12 M85,0 h12 v12 h-12 M102,0 h12 v12 h-12 M119,0 h12 v12 h-12 M136,0 h12 v12 h-12 M153,0 h12 v12 h-12 M170,0 h12 v12 h-12 M187,0 h12 v12 h-12 M204,0 h12 v12 h-12 M221,0 h12 v12 h-12 M238,0 h12 v12 h-12 M255,0 h12 v12 h-12 M272,0 h12 v12 h-12 M289,0 h12 v12 h-12 M306,0 h12 v12 h-12 M323,0 h12 v12 h-12 M340,0 h12 v12 h-12 M357,0 h12 v12 h-12 M374,0 h12 v12 h-12 M391,0 h12 v12 h-12 M408,0 h12 v12 h-12 M425,0 h12 v12 h-12 M442,0 h12 v12 h-12 M459,0 h12 v12 h-12 M476,0 h12 v12 h-12 M493,0 h12 v12 h-12"></path></svg>
